<?xml version="1.0" encoding="UTF-8" standalone="no"?>
<!-- Created with Inkscape (http://www.inkscape.org/) -->

<svg
   xmlns:dc="http://purl.org/dc/elements/1.1/"
   xmlns:cc="http://creativecommons.org/ns#"
   xmlns:rdf="http://www.w3.org/1999/02/22-rdf-syntax-ns#"
   xmlns:svg="http://www.w3.org/2000/svg"
   xmlns="http://www.w3.org/2000/svg"
   xmlns:sodipodi="http://sodipodi.sourceforge.net/DTD/sodipodi-0.dtd"
   xmlns:inkscape="http://www.inkscape.org/namespaces/inkscape"
   width="756.00061"
   height="509.8858"
   viewBox="0 0 756.00058 509.88581"
   id="svg2"
   version="1.1"
   inkscape:version="0.91 r13725"
   sodipodi:docname="logo.svg"
   inkscape:export-filename="C:\Users\GII\Desktop\PW\Practicas\P2\logo.png"
   inkscape:export-xdpi="200"
   inkscape:export-ydpi="200">
  <defs
     id="defs4" />
  <sodipodi:namedview
     id="base"
     pagecolor="#ffffff"
     bordercolor="#666666"
     borderopacity="1.0"
     inkscape:pageopacity="0.0"
     inkscape:pageshadow="2"
     inkscape:zoom="0.7"
     inkscape:cx="320.72651"
     inkscape:cy="370.36709"
     inkscape:document-units="px"
     inkscape:current-layer="layer2"
     showgrid="false"
     units="px"
     inkscape:window-width="1366"
     inkscape:window-height="706"
     inkscape:window-x="-8"
     inkscape:window-y="-8"
     inkscape:window-maximized="1"
     showguides="true"
     inkscape:guide-bbox="true"
     fit-margin-top="0"
     fit-margin-left="0"
     fit-margin-right="0"
     fit-margin-bottom="0">
    <sodipodi:guide
       position="316.99262,211.88305"
       orientation="0,1"
       id="guide4187" />
  </sodipodi:namedview>
  <metadata
     id="metadata7">
    <rdf:RDF>
      <cc:Work
         rdf:about="">
        <dc:format>image/svg+xml</dc:format>
        <dc:type
           rdf:resource="http://purl.org/dc/dcmitype/StillImage" />
        <dc:title />
      </cc:Work>
    </rdf:RDF>
  </metadata>
  <g
     inkscape:groupmode="layer"
     id="layer2"
     inkscape:label="Logo"
     transform="translate(-0.15022047,9.4313412)">
    <path
       style="fill:#aa5939;fill-opacity:1;fill-rule:evenodd;stroke:none;stroke-width:0.55157614;stroke-linecap:butt;stroke-linejoin:miter;stroke-miterlimit:4;stroke-dasharray:none;stroke-opacity:1"
       d="M 267.19545,194.63765 405.03255,57.128712 c 1.56329,-1.559548 -0.69695,-7.018686 -1.47749,-7.804318 L 346.74654,-7.8554138 c -2.97035,-1.880402 -5.94074,-2.3110662 -8.9111,0 L 322.98353,6.9964747 c -0.45218,0.9946592 -0.77779,2.445791 -0.74256,5.1981753 l 1.96521,20.027529 -110.38406,109.555231 z"
       id="path4166"
       inkscape:connector-curvature="0"
       sodipodi:nodetypes="cssccccccc" />
    <path
       style="fill:#7e7e7e;fill-opacity:1;fill-rule:evenodd;stroke:none;stroke-width:0.55157614;stroke-linecap:butt;stroke-linejoin:miter;stroke-miterlimit:4;stroke-dasharray:none;stroke-opacity:1"
       d="m 201.16493,154.73056 c 2.38152,-1.57735 4.6171,-3.57311 8.79528,0 l 61.56725,61.43594 c 1.59404,3.01617 0.82785,5.32427 0,7.61386 C 104.82691,396.08505 -17.11683,379.73893 2.1543906,354.0036 Z"
       id="path4168"
       inkscape:connector-curvature="0"
       sodipodi:nodetypes="cccccc" />
    <path
       style="font-style:normal;font-weight:normal;font-size:40px;line-height:125%;font-family:sans-serif;letter-spacing:0px;word-spacing:0px;fill:#ffffff;fill-opacity:1;stroke:none;stroke-width:1px;stroke-linecap:butt;stroke-linejoin:miter;stroke-opacity:1"
       d="m 645.30784,273.83617 c -6.05494,0 -9.96735,0.147 -11.73952,0.44229 -1.6245,0.1476 -3.62226,1.10741 -5.98516,2.87961 -2.21521,1.62447 -3.98777,4.20989 -5.31689,7.75423 -2.21525,5.75961 -3.54228,20.67466 -3.98531,44.74679 l -8.85994,0 c -4.13511,0 -7.82714,0.59247 -11.07613,1.77393 -3.10129,1.18144 -4.6535,3.69336 -4.6535,7.53308 0,1.62451 0.44554,2.95153 1.33163,3.9853 2.21523,2.65829 9.96659,3.98528 23.25794,3.98528 0.44303,13.88207 1.1824,27.10286 2.21617,39.65581 1.0338,12.55293 1.54798,25.47507 1.54798,38.76641 0,4.72582 1.99773,7.08605 5.98514,7.08605 2.51058,0 4.94428,-0.88629 7.30717,-2.65846 2.3629,-1.77219 3.54299,-4.13242 3.54304,-7.08603 0,-14.32513 -0.51422,-29.01983 -1.54799,-44.08336 -1.03377,-15.21122 -1.6997,-25.77316 -1.99505,-31.68042 2.5106,0.1476 4.72869,0.22594 6.64854,0.22594 1.91986,0 3.54073,-0.0784 4.86986,-0.22594 8.8609,-0.29537 13.29231,-3.54184 13.29231,-9.74449 0,-4.28276 -3.24648,-6.57432 -9.74447,-6.86969 l -15.50852,0 0,-16.83532 c 0,-6.94104 0.147,-11.51937 0.44228,-13.7346 1.03378,-6.20263 4.13817,-9.30222 9.30701,-9.30222 1.18147,0 3.8355,0.81285 7.97058,2.43734 4.13509,1.47681 6.64705,2.21619 7.53312,2.21619 4.28276,0 6.42263,-2.65883 6.42263,-7.97536 0,-5.31657 -1.99294,-8.86171 -5.98035,-10.63389 -3.98741,-1.77217 -9.07993,-2.65845 -15.28257,-2.65847 z m -177.58814,0.66344 c -2.51059,0 -4.94906,0.81282 -7.31197,2.4373 -2.21523,1.6245 -3.32187,3.84263 -3.32187,6.64858 0,22.89064 0.59244,48.80841 1.77391,77.754 1.18144,28.79795 1.76909,50.06389 1.76909,63.79829 0,4.87349 1.99291,7.30717 5.98034,7.30717 2.65827,0 4.72944,-0.5142 6.20626,-1.54796 1.62455,-1.03378 2.65773,-2.14045 3.10077,-3.32189 0.44307,-1.18146 0.81032,-2.88055 1.10569,-5.09578 l 0,-22.15227 c 1.03377,-1.03375 4.28508,-3.91297 9.74931,-8.63879 5.61189,-4.8735 8.78491,-7.83096 9.52332,-8.86475 7.67946,7.08872 13.81001,17.20513 18.3881,30.34879 4.57817,12.99598 8.19673,19.49379 10.855,19.49379 6.35033,0 9.52336,-3.46685 9.52336,-10.4079 0,-5.02119 -1.99296,-11.96452 -5.98035,-20.82541 -6.64569,-13.73441 -13.29037,-24.29153 -19.93606,-31.67562 6.94103,-7.53176 13.06676,-15.87557 18.38328,-25.03185 2.06752,-3.83973 3.10076,-6.94412 3.10076,-9.30702 0,-2.36289 -1.54742,-4.4293 -4.64874,-6.2015 -1.18144,-0.59071 -2.36634,-0.88455 -3.54779,-0.88455 -4.43046,0 -9.30263,4.20628 -14.61913,12.62412 -3.39669,5.02118 -8.48919,11.07823 -15.28257,18.16696 -6.64565,6.94105 -12.11029,12.03355 -16.39305,15.28252 -0.7384,-12.25756 -1.2574,-23.26024 -1.55278,-33.00723 -0.1476,-4.7258 -0.29459,-8.26614 -0.44227,-10.62903 -0.14761,-2.36291 -0.22126,-5.90803 -0.22126,-10.63386 l 0,-39.2087 c -0.73842,-4.28279 -2.80479,-6.42741 -6.20147,-6.42741 z m -245.56405,12.85004 c -1.9322,0 -3.82798,0.0844 -5.70149,0.22594 -18.64042,14.658 -36.7742,27.94664 -54.35666,39.9923 -3.36883,9.44375 -5.06692,20.62041 -5.06692,33.55046 0,24.9582 6.71815,44.67196 20.15717,59.14479 7.53176,7.82711 16.61497,11.73954 27.24806,11.73954 5.16885,0 11.29936,-1.10667 18.38807,-3.3219 7.08873,-2.36289 16.97992,-6.86776 29.68055,-13.51343 3.69206,-2.65827 5.53806,-5.97823 5.53806,-9.96563 0,-3.98741 -1.91947,-5.98515 -5.75918,-5.98515 -1.77217,0 -5.31731,1.25836 -10.63384,3.76897 -15.21121,7.38407 -26.28735,11.07613 -33.22838,11.07613 -6.94104,0 -12.91986,-2.73234 -17.94103,-8.19654 -9.74699,-10.4854 -14.61913,-25.03319 -14.61913,-43.6411 -1e-5,-18.60788 4.13278,-32.63666 12.40295,-42.08831 8.27016,-9.45162 20.37949,-14.17684 36.32912,-14.17684 6.94104,0 14.39856,1.03319 22.37338,3.10072 3.1013,0 5.83362,-0.88629 8.19652,-2.65847 2.51059,-1.91987 3.76896,-4.05969 3.76896,-6.4226 0,-2.51059 -1.33182,-4.80214 -3.99007,-6.8697 -11.96223,-3.8397 -22.89146,-5.75918 -32.78614,-5.75918 z m 339.72553,4.87464 c -7.67945,0.59072 -11.52321,4.42968 -11.52321,11.5184 0,3.69206 1.11146,6.71817 3.32667,9.08109 2.36291,2.3629 4.9435,3.54297 7.74946,3.54297 2.80594,0 5.46479,-1.40044 7.97538,-4.20639 2.65828,-2.80596 3.9901,-5.53826 3.9901,-8.19652 0,-2.80597 -1.18491,-5.46479 -3.54784,-7.9754 -2.36289,-2.51061 -4.87,-3.76415 -7.52829,-3.76415 l -0.44227,0 z m -3.3267,35.2186 c -3.10131,0 -4.79561,1.33185 -5.09097,3.99013 -0.44303,7.23638 -0.66822,13.3669 -0.66822,18.38807 0,5.02118 0.95976,31.08583 2.87961,78.1963 0.14761,3.69203 2.06715,5.53805 5.7592,5.53805 2.51058,0 4.87562,-0.88629 7.09084,-2.65845 2.21523,-1.91988 3.32188,-4.28491 3.32188,-7.09085 l -0.22103,-15.5037 0,-49.62141 0.88453,-13.95572 c 0,-1.91988 -0.22029,-4.50524 -0.66341,-7.75424 -1.03379,-6.35031 -5.4652,-9.52818 -13.29231,-9.52818 z m -241.622,1.55278 c -13.58671,0 -23.84999,5.09733 -30.79104,15.28736 -6.49799,9.59932 -9.74931,22.44319 -9.74931,38.54048 0,12.55295 3.54514,24.00117 10.63385,34.33887 7.08873,10.19005 16.39232,15.28257 27.91147,15.28257 11.66686,0 20.97042,-5.01906 27.91144,-15.06142 7.08873,-10.04234 10.63384,-22.15166 10.63384,-36.32911 0,-14.32513 -3.47168,-26.58136 -10.4127,-36.77139 -6.79337,-10.19003 -15.50448,-15.28736 -26.13755,-15.28736 z m 89.1282,0 c -13.58672,0 -23.84998,5.09733 -30.79104,15.28736 -6.49799,9.59932 -9.7493,22.44319 -9.7493,38.54048 0,12.55295 3.54511,24.00117 10.63384,34.33887 7.08872,10.19005 16.39227,15.28257 27.91144,15.28257 11.66686,0 20.97042,-5.01906 27.91147,-15.06142 7.08872,-10.04234 10.63384,-22.15166 10.63384,-36.32911 0,-14.32513 -3.47168,-26.58136 -10.4127,-36.77139 -6.79337,-10.19003 -15.50448,-15.28736 -26.13755,-15.28736 z m 276.54257,0.88457 c -3.10132,0 -5.53498,0.95973 -7.30717,2.87958 -1.77218,1.91987 -2.65847,3.47205 -2.65847,4.6535 0,1.18146 0.147,2.14122 0.44231,2.87961 21.26614,55.82365 33.74753,86.83876 37.43956,93.04138 -1.03377,3.9874 -4.06468,13.21753 -9.08585,27.69032 -4.87349,14.62048 -7.30716,23.85057 -7.30716,27.6903 0,3.83972 0.81281,6.71892 2.43729,8.6388 1.6245,2.06753 3.83778,3.10074 6.64378,3.10074 2.80592,0 4.87233,-1.99294 6.20145,-5.98035 6.05495,-16.98337 15.35854,-46.51972 27.91147,-88.60899 12.55293,-42.08928 18.83038,-65.27474 18.83038,-69.5575 0,-1.6245 -0.95975,-3.10322 -2.87963,-4.43237 -1.77218,-1.32911 -3.61821,-1.99502 -5.53807,-1.99502 -5.90725,0 -9.15854,1.62566 -9.74927,4.87463 -0.73839,2.80595 -3.61762,14.24935 -8.6388,34.33405 -5.02119,19.93704 -8.56151,33.37821 -10.62907,40.31921 -2.3629,-6.35029 -4.87482,-12.48082 -7.53306,-18.38808 -2.51061,-5.90726 -6.1292,-15.43119 -10.85501,-28.57488 -4.72582,-13.29134 -8.12405,-22.5949 -10.19158,-27.91144 -1.91987,-3.1013 -4.43178,-4.65349 -7.5331,-4.65349 z m -368.32921,17.28238 c 14.32513,0 21.48401,12.10934 21.48401,36.32912 0,6.20264 -0.58763,11.3686 -1.7691,15.50369 -2.80594,8.7132 -9.23029,13.07119 -19.27265,13.07119 -5.6119,0 -10.63575,-2.9527 -15.06622,-8.85996 -4.43044,-5.90726 -6.64376,-14.47143 -6.64376,-25.69525 0,-7.2364 1.99296,-14.10631 5.98035,-20.6043 3.98743,-6.49796 9.08473,-9.74449 15.28737,-9.74449 z m 89.12819,0 c 14.32511,0 21.48402,12.10934 21.48402,36.32912 0,6.20264 -0.58766,11.3686 -1.7691,15.50369 -2.80594,8.7132 -9.23034,13.07119 -19.27265,13.07119 -5.61193,0 -10.63576,-2.9527 -15.06624,-8.85996 -4.43042,-5.90726 -6.64373,-14.47143 -6.64373,-25.69525 0,-7.2364 1.99294,-14.10631 5.98034,-20.6043 3.9874,-6.49796 9.0847,-9.74449 15.28736,-9.74449 z"
       id="text4183"
       inkscape:connector-curvature="0" />
  </g>
</svg>
